<svg width="50" height="51" viewBox="0 0 50 51" fill="none" xmlns="http://www.w3.org/2000/svg">
<rect width="50" height="50.5312" rx="6" fill="#F2F2F2"/>
<rect width="50" height="19.5312" rx="6" fill="#FF3F3F"/>
<path d="M9.54297 5.57617V6.63086C10.4609 6.65039 11.1914 6.80664 11.7344 7.09961C12.2812 7.38867 12.6738 7.76953 12.9121 8.24219C13.1543 8.71484 13.2754 9.24023 13.2754 9.81836C13.2754 10.2012 13.2129 10.582 13.0879 10.9609C12.9629 11.3398 12.7578 11.6855 12.4727 11.998C12.1875 12.3105 11.8047 12.5625 11.3242 12.7539C10.8438 12.9453 10.25 13.0488 9.54297 13.0645V14.3828H8.23047V13.0645C7.50781 13.0488 6.90625 12.9434 6.42578 12.748C5.94531 12.5527 5.5625 12.2988 5.27734 11.9863C4.99609 11.6699 4.79492 11.3242 4.67383 10.9492C4.55664 10.5703 4.49805 10.1953 4.49805 9.82422C4.49805 9.39844 4.5625 8.99609 4.69141 8.61719C4.82422 8.23828 5.03711 7.90234 5.33008 7.60938C5.62305 7.31641 6.00781 7.08398 6.48438 6.91211C6.96094 6.74023 7.54297 6.64648 8.23047 6.63086V5.57617H9.54297ZM8.23047 7.76172C7.64844 7.78125 7.18359 7.87891 6.83594 8.05469C6.48828 8.22656 6.23828 8.46289 6.08594 8.76367C5.93359 9.06445 5.85742 9.41406 5.85742 9.8125C5.85742 10.2383 5.94141 10.6074 6.10938 10.9199C6.27734 11.2324 6.53711 11.4785 6.88867 11.6582C7.24023 11.834 7.6875 11.9316 8.23047 11.9512V7.76172ZM9.54297 7.76172V11.9512C10.0977 11.9316 10.5488 11.832 10.8965 11.6523C11.248 11.4727 11.5059 11.2266 11.6699 10.9141C11.8379 10.5977 11.9219 10.2285 11.9219 9.80664C11.9219 9.4043 11.8457 9.05469 11.6934 8.75781C11.541 8.45703 11.291 8.2207 10.9434 8.04883C10.5957 7.87695 10.1289 7.78125 9.54297 7.76172ZM19.8438 14.2656H14.9922V5.69922H19.8438V6.88281H16.3984V9.20898H19.627V10.3867H16.3984V13.0762H19.8438V14.2656ZM21.6953 5.69922H24.2441C25.3496 5.69922 26.1836 5.85938 26.7461 6.17969C27.3086 6.5 27.5898 7.05273 27.5898 7.83789C27.5898 8.16602 27.5312 8.46289 27.4141 8.72852C27.3008 8.99023 27.1348 9.20703 26.916 9.37891C26.6973 9.54688 26.4277 9.66016 26.1074 9.71875V9.77734C26.4395 9.83594 26.7344 9.93945 26.9922 10.0879C27.2539 10.2363 27.459 10.4492 27.6074 10.7266C27.7598 11.0039 27.8359 11.3633 27.8359 11.8047C27.8359 12.3281 27.7109 12.7734 27.4609 13.1406C27.2148 13.5078 26.8613 13.7871 26.4004 13.9785C25.9434 14.1699 25.4004 14.2656 24.7715 14.2656H21.6953V5.69922ZM23.1016 9.23242H24.4492C25.0859 9.23242 25.5273 9.12891 25.7734 8.92188C26.0195 8.71484 26.1426 8.41211 26.1426 8.01367C26.1426 7.60742 25.9961 7.31445 25.7031 7.13477C25.4141 6.95508 24.9531 6.86523 24.3203 6.86523H23.1016V9.23242ZM23.1016 10.3691V13.0879H24.584C25.2402 13.0879 25.7012 12.9609 25.9668 12.707C26.2324 12.4531 26.3652 12.1094 26.3652 11.6758C26.3652 11.4102 26.3047 11.1797 26.1836 10.9844C26.0664 10.7891 25.873 10.6387 25.6035 10.5332C25.334 10.4238 24.9707 10.3691 24.5137 10.3691H23.1016ZM28.9023 11.6289V10.4629H31.9258V11.6289H28.9023ZM38.6875 14.2656H32.8867V13.2285L35.1074 10.9785C35.5371 10.541 35.8906 10.1641 36.168 9.84766C36.4453 9.52734 36.6504 9.22461 36.7832 8.93945C36.9199 8.6543 36.9883 8.34375 36.9883 8.00781C36.9883 7.59375 36.8691 7.28125 36.6309 7.07031C36.3926 6.85547 36.0781 6.74805 35.6875 6.74805C35.3164 6.74805 34.9727 6.82227 34.6562 6.9707C34.3438 7.11523 34.0195 7.32227 33.6836 7.5918L32.9277 6.68359C33.166 6.48047 33.4199 6.29492 33.6895 6.12695C33.9629 5.95898 34.2676 5.82617 34.6035 5.72852C34.9395 5.62695 35.3223 5.57617 35.752 5.57617C36.2949 5.57617 36.7637 5.67383 37.1582 5.86914C37.5527 6.06055 37.8555 6.32812 38.0664 6.67188C38.2812 7.01562 38.3887 7.41602 38.3887 7.87305C38.3887 8.33398 38.2969 8.75977 38.1133 9.15039C37.9297 9.54102 37.668 9.92773 37.3281 10.3105C36.9883 10.6895 36.584 11.1016 36.1152 11.5469L34.6328 12.9941V13.0586H38.6875V14.2656ZM45.2266 7.65625C45.2266 8.04297 45.1484 8.37891 44.9922 8.66406C44.8359 8.94922 44.6211 9.18359 44.3477 9.36719C44.0781 9.54688 43.7656 9.67578 43.4102 9.75391V9.79492C44.0938 9.88086 44.6094 10.0957 44.957 10.4395C45.3086 10.7832 45.4844 11.2383 45.4844 11.8047C45.4844 12.3008 45.3652 12.7441 45.127 13.1348C44.8887 13.5215 44.5234 13.8262 44.0312 14.0488C43.5391 14.2715 42.9062 14.3828 42.1328 14.3828C41.668 14.3828 41.2363 14.3457 40.8379 14.2715C40.4434 14.1973 40.0684 14.0781 39.7129 13.9141V12.6895C40.0762 12.8691 40.4629 13.0078 40.873 13.1055C41.2832 13.2031 41.6719 13.252 42.0391 13.252C42.7539 13.252 43.2637 13.1191 43.5684 12.8535C43.873 12.584 44.0254 12.2129 44.0254 11.7402C44.0254 11.4355 43.9453 11.1855 43.7852 10.9902C43.6289 10.7949 43.3848 10.6484 43.0527 10.5508C42.7246 10.4531 42.3008 10.4043 41.7812 10.4043H41.0254V9.29688H41.7871C42.2832 9.29688 42.6816 9.23828 42.9824 9.12109C43.2832 9 43.5 8.83398 43.6328 8.62305C43.7695 8.41211 43.8379 8.16602 43.8379 7.88477C43.8379 7.51758 43.7188 7.23242 43.4805 7.0293C43.2422 6.82227 42.8887 6.71875 42.4199 6.71875C42.1309 6.71875 41.8672 6.75195 41.6289 6.81836C41.3945 6.88477 41.1777 6.96875 40.9785 7.07031C40.7793 7.17188 40.5898 7.28125 40.4102 7.39844L39.748 6.44336C40.0723 6.20117 40.459 5.99609 40.9082 5.82812C41.3574 5.66016 41.8809 5.57617 42.4785 5.57617C43.3574 5.57617 44.0352 5.76562 44.5117 6.14453C44.9883 6.51953 45.2266 7.02344 45.2266 7.65625Z" fill="white"/>
<path d="M24.1211 35.3828C24.1211 36.5352 24.0299 37.5671 23.8477 38.4785C23.6719 39.3835 23.3919 40.1517 23.0078 40.7832C22.6237 41.4147 22.1224 41.8965 21.5039 42.2285C20.8854 42.5605 20.1367 42.7266 19.2578 42.7266C18.1576 42.7266 17.2493 42.4368 16.5332 41.8574C15.8171 41.2715 15.2865 40.4316 14.9414 39.3379C14.5964 38.2376 14.4238 36.9193 14.4238 35.3828C14.4238 33.8464 14.5801 32.5312 14.8926 31.4375C15.2116 30.3372 15.7259 29.4941 16.4355 28.9082C17.1452 28.3223 18.0859 28.0293 19.2578 28.0293C20.3646 28.0293 21.276 28.3223 21.9922 28.9082C22.7148 29.4876 23.2487 30.3275 23.5938 31.4277C23.9453 32.5215 24.1211 33.8398 24.1211 35.3828ZM16.7383 35.3828C16.7383 36.5872 16.8164 37.5931 16.9727 38.4004C17.1354 39.2077 17.4023 39.8132 17.7734 40.2168C18.1445 40.6139 18.6393 40.8125 19.2578 40.8125C19.8763 40.8125 20.3711 40.6139 20.7422 40.2168C21.1133 39.8197 21.3802 39.2174 21.543 38.4102C21.7122 37.6029 21.7969 36.5938 21.7969 35.3828C21.7969 34.1849 21.7155 33.1823 21.5527 32.375C21.39 31.5677 21.123 30.9622 20.752 30.5586C20.3809 30.1484 19.8828 29.9434 19.2578 29.9434C18.6328 29.9434 18.1348 30.1484 17.7637 30.5586C17.3991 30.9622 17.1354 31.5677 16.9727 32.375C16.8164 33.1823 16.7383 34.1849 16.7383 35.3828ZM35.0195 31.5156C35.0195 32.1602 34.8893 32.7201 34.6289 33.1953C34.3685 33.6706 34.0104 34.0612 33.5547 34.3672C33.1055 34.6667 32.5846 34.8815 31.9922 35.0117V35.0801C33.1315 35.2233 33.9909 35.5814 34.5703 36.1543C35.1562 36.7272 35.4492 37.4857 35.4492 38.4297C35.4492 39.2565 35.2507 39.9954 34.8535 40.6465C34.4564 41.291 33.8477 41.7988 33.0273 42.1699C32.207 42.541 31.1523 42.7266 29.8633 42.7266C29.0885 42.7266 28.3691 42.6647 27.7051 42.541C27.0475 42.4173 26.4225 42.2188 25.8301 41.9453V39.9043C26.4355 40.2038 27.0801 40.4349 27.7637 40.5977C28.4473 40.7604 29.0951 40.8418 29.707 40.8418C30.8984 40.8418 31.748 40.6204 32.2559 40.1777C32.7637 39.7285 33.0176 39.11 33.0176 38.3223C33.0176 37.8145 32.8841 37.3978 32.6172 37.0723C32.3568 36.7467 31.9499 36.5026 31.3965 36.3398C30.8496 36.1771 30.1432 36.0957 29.2773 36.0957H28.0176V34.25H29.2871C30.1139 34.25 30.778 34.1523 31.2793 33.957C31.7806 33.7552 32.1419 33.4785 32.3633 33.127C32.5911 32.7754 32.7051 32.3652 32.7051 31.8965C32.7051 31.2845 32.5065 30.8092 32.1094 30.4707C31.7122 30.1257 31.123 29.9531 30.3418 29.9531C29.86 29.9531 29.4206 30.0085 29.0234 30.1191C28.6328 30.2298 28.2715 30.3698 27.9395 30.5391C27.6074 30.7083 27.2917 30.8906 26.9922 31.0859L25.8887 29.4941C26.429 29.0905 27.0736 28.7487 27.8223 28.4688C28.571 28.1888 29.4434 28.0488 30.4395 28.0488C31.9043 28.0488 33.0339 28.3646 33.8281 28.9961C34.6224 29.6211 35.0195 30.4609 35.0195 31.5156Z" fill="black"/>
</svg>
